<?xml version="1.0" standalone="no"?>
<!DOCTYPE svg PUBLIC "-//W3C//DTD SVG 20010904//EN"
 "http://www.w3.org/TR/2001/REC-SVG-20010904/DTD/svg10.dtd">
<svg version="1.0" xmlns="http://www.w3.org/2000/svg"
 width="200.000000pt" height="200.000000pt" viewBox="0 0 200.000000 200.000000"
 preserveAspectRatio="xMidYMid meet">
<metadata>
Created by potrace 1.11, written by Peter Selinger 2001-2013
</metadata>
<g transform="translate(0.000000,200.000000) scale(0.100000,-0.100000)"
fill="#000000" stroke="none">
<path d="M887 1873 c-33 -17 -60 -67 -53 -97 2 -11 8 -57 11 -101 4 -44 8 -82
10 -85 2 -3 6 -41 10 -85 3 -44 8 -87 10 -95 2 -8 7 -46 11 -85 3 -38 7 -76 9
-85 9 -47 14 -143 6 -125 -27 62 -109 85 -173 47 -36 -21 -48 -52 -48 -123 l0
-59 -27 30 c-57 63 -150 37 -172 -48 -17 -61 -12 -389 5 -458 63 -241 269
-398 510 -389 173 7 307 83 397 228 39 61 58 112 86 224 36 141 23 199 -56
256 -46 34 -46 36 -29 122 5 24 33 178 41 220 2 17 23 129 46 250 57 310 57
306 21 346 -24 27 -36 33 -71 33 -71 0 -96 -42 -136 -224 -16 -76 -100 -389
-108 -405 -10 -20 -36 -44 -48 -45 -3 0 -6 6 -6 13 0 11 -6 50 -18 118 -6 31
-15 93 -20 134 -2 17 -11 73 -19 125 -9 52 -18 113 -21 135 -4 22 -8 51 -11
65 -2 14 -7 46 -10 72 -6 46 -41 96 -68 99 -6 1 -20 3 -32 4 -12 1 -33 -4 -47
-12z"/>
</g>
</svg>
